<svg fill="none" height="50" viewBox="0 0 112 50" width="112" xmlns="http://www.w3.org/2000/svg"><g fill="#283a5e"><path clip-rule="evenodd" d="m15.7563 20.4743c-1.3292-1.5598-3.3081-2.5491-5.5181-2.5491-2.2099 0-4.18879.9893-5.51796 2.5491v-2.948c0-.5349.26324-1.0084.66724-1.2978.00783-.01.01575-.0172.02378-.0215l.03437-.0183c.09403-.0613.19492-.1129.30127-.1535.18767-.0918.37855-.178.57245-.2584 1.20712-.5005 2.53074-.7768 3.91885-.7768 1.3882 0 2.7118.2763 3.9189.7768.1939.0804.3848.1666.5725.2584.1063.0406.2072.0922.3013.1535l.0343.0183c.0076.0041.0151.0109.0225.0205.4047.2894.6686.7633.6686 1.2988zm-5.5181 11.944c3.9235 0 7.1186-3.1179 7.2428-7.0112.0025-.0416.0038-.0835.0038-.1257v-7.2759c1.8486 1.8521 2.9917 4.4088 2.9917 7.2324 0 5.6544-4.5839 10.2383-10.2383 10.2383-5.65439 0-10.2382-4.5839-10.2382-10.2383 0-2.8236 1.14306-5.3803 2.9917-7.2325v7.276c0 .0422.00126.0841.00375.1257.1242 3.8933 3.31937 7.0112 7.24275 7.0112zm13.7618 1.263c0 .9914-.8037 1.7951-1.795 1.7951-.9914 0-1.795-.8037-1.795-1.7951 0-.9913.8036-1.795 1.795-1.795.9913 0 1.795.8037 1.795 1.795z" fill-rule="evenodd"/><path d="m49.152 21.76h-1.248c-.016-.8-.016-1.6 0-2.4.112-.016.192-.032.272-.064.448.368 1.008 1.072 1.168 1.664.112.064.24.112.352.128zm-9.44 1.76h1.728c.096 0 .16-.016.224-.032v1.888c0 .656-.016 1.328-.08 1.984-.64.224-1.264.432-1.872.624zm11.776 5.504-.192-.032c-.208.656-.512 1.424-.72 1.808-.144.304-.224.304-.416.032-.496-.592-.88-1.312-1.184-2.128.736-1.184 1.328-2.576 1.824-4.224.416.016.56-.08.64-.272l-1.888-.608c-.304 1.296-.656 2.448-1.072 3.456-.336-1.472-.496-3.136-.56-4.832h3.152c.224 0 .384-.08.432-.256-.384-.336-.896-.736-1.216-.992.576-.432.416-1.68-1.92-1.808.064-.08.112-.16.112-.256l-2.048-.224c0 1.056.016 2.08.064 3.072h-3.184l-1.648-.624v1.92c-.464-.512-1.088-1.136-1.088-1.136l-.736 1.136h-.128v-3.6c.432-.048.56-.208.592-.432l-2.032-.208v4.24h-1.696l.128.464h1.568v4.912c-.816.256-1.472.448-1.872.544l.88 1.808c.16-.064.304-.24.352-.448 1.744-1.12 3.04-2.032 3.92-2.672-.208 1.968-.832 3.872-2.448 5.488l.192.176c3.424-2.08 3.776-5.344 3.776-7.968v-.176h1.552c-.048 2.528-.128 3.776-.368 4.064-.064.08-.128.112-.272.112-.192 0-.848-.048-1.264-.08v.24c.416.096.832.272.992.448s.24.496.24.784c.48 0 .928-.112 1.248-.4.576-.512.688-1.936.752-4.976.304-.048.496-.144.592-.272l-1.36-1.088-.704.704h-1.408v-2.496h3.44c.128 2.448.432 4.72 1.056 6.672-1.024 1.712-2.336 3.008-4.064 4.096l.144.256c1.808-.816 3.216-1.84 4.352-3.2.32.784.72 1.504 1.2 2.16.512.72 1.568 1.44 2.224.944.24-.176.176-.64-.256-1.52zm6.72-10.448c.592.544 1.28 1.472 1.488 2.304 1.584.976 2.784-2.08-1.36-2.416zm6.464 2.576h-12.08l.144.464h6.464v2.16h-2.928l-1.632-.688v8.064h.24c.624 0 1.28-.336 1.28-.496v-6.416h3.04v9.12h.288c.8 0 1.296-.32 1.296-.448v-8.672h3.04v5.008c0 .208-.08.304-.352.304-.368 0-1.792-.096-1.792-.096v.24c.72.096 1.072.288 1.296.512.192.224.272.576.32 1.04 1.824-.16 2.064-.784 2.064-1.84v-4.896c.32-.064.56-.208.672-.32l-1.648-1.248-.72.832h-2.88v-2.16h6.24c.24 0 .4-.08.448-.256-.688-.608-1.792-1.456-1.792-1.456zm7.184 2.736h1.936c.224 0 .384-.08.416-.256-.464-.544-1.312-1.392-1.312-1.392l-.752 1.184h-.288v-3.936c.416-.048.544-.208.592-.432l-2.032-.208v4.576h-1.824l.128.464h1.696v5.408c-.864.304-1.568.544-2.016.672l.8 1.808c.176-.08.304-.256.352-.464 2.048-1.312 3.552-2.48 4.576-3.264l-.08-.176c-.736.304-1.488.608-2.192.88zm10.96 4.896h-.176c-.288 1.136-.56 2.016-.752 2.304-.128.16-.272.224-.528.24-.352.048-1.056.064-2 .064h-2.256c-.912 0-1.12-.176-1.12-.64v-6.4l1.728-.64v6.592h.272c.528 0 1.152-.32 1.152-.48v-6.64l1.968-.72c-.048 3.472-.16 4.848-.432 5.136-.096.112-.176.144-.4.144-.24 0-.736-.032-1.04-.064v.256c.384.096.64.224.8.432.16.192.176.544.176.976.592 0 1.136-.16 1.52-.528.608-.56.768-1.888.816-6.128.304-.048.496-.128.608-.256l-1.44-1.184-.784.768h.016l-.144.048-1.664.624v-3.488c.416-.064.544-.224.576-.448l-2-.208v4.672l-1.728.64v-3.376c.384-.064.544-.24.576-.448l-2.032-.24v4.592l-2.048.768.304.384 1.744-.64v6.224c0 1.376.624 1.696 2.432 1.696h2.304c3.52 0 4.304-.256 4.304-1.008 0-.288-.16-.464-.704-.656zm6.272.416c2.24.576 4.16 1.536 5.008 2.176 1.52.368 1.824-2.672-4.96-2.416zm1.44-2.192c1.168.432 2.112 1.104 2.496 1.552 1.216.432 1.744-2.064-2.432-1.792zm3.104-4.656c-.416.736-.944 1.408-1.6 2.048-.768-.448-1.424-.976-1.92-1.616.112-.144.208-.288.32-.432zm.928-1.264-.864.8h-2.96c.16-.304.336-.608.464-.896.304.048.464 0 .528-.144l-1.824-.768c-.352 1.456-1.184 3.456-2.224 4.816l.144.192c.736-.56 1.44-1.264 2.048-1.984.384.72.896 1.376 1.472 1.92-1.104.928-2.48 1.728-3.952 2.304l.128.24c1.744-.432 3.264-1.104 4.56-1.92.992.72 2.176 1.264 3.488 1.68.144-.672.512-1.12 1.072-1.248l.016-.176c-1.232-.192-2.48-.512-3.568-.976.864-.72 1.6-1.504 2.176-2.4.368-.016.528-.064.656-.208zm-7.424 10.592v-11.648h9.68v11.648zm10.304-12.992-.784.88h-9.392l-1.616-.72v14.496h.256c.656 0 1.232-.384 1.232-.576v-.624h9.68v1.12h.224c.56 0 1.28-.4 1.296-.528v-12.432c.32-.08.56-.192.672-.336z"/></g></svg>