<svg fill="none" height="29" viewBox="0 0 720 29" width="720" xmlns="http://www.w3.org/2000/svg" xmlns:xlink="http://www.w3.org/1999/xlink"><mask id="a" fill="#fff"><path clip-rule="evenodd" d="m20 14c0 3.3137-2.6863 6-6 6s-6-2.6863-6-6 2.6863-6 6-6 6 2.6863 6 6zm20 0c0 3.3137-2.6863 6-6 6s-6-2.6863-6-6 2.6863-6 6-6 6 2.6863 6 6zm14 6c3.3137 0 6-2.6863 6-6s-2.6863-6-6-6-6 2.6863-6 6 2.6863 6 6 6z" fill="#fff" fill-rule="evenodd"/></mask><path d="m0 4c0-2.20914 1.79086-4 4-4h712c2.209 0 4 1.79086 4 4v24h-720z" fill="#fff"/><path clip-rule="evenodd" d="m20 14c0 3.3137-2.6863 6-6 6s-6-2.6863-6-6 2.6863-6 6-6 6 2.6863 6 6zm20 0c0 3.3137-2.6863 6-6 6s-6-2.6863-6-6 2.6863-6 6-6 6 2.6863 6 6zm14 6c3.3137 0 6-2.6863 6-6s-2.6863-6-6-6-6 2.6863-6 6 2.6863 6 6 6z" fill="#e5e5e5" fill-rule="evenodd"/><path d="m14 20.5c3.5899 0 6.5-2.9101 6.5-6.5h-1c0 3.0376-2.4624 5.5-5.5 5.5zm-6.5-6.5c0 3.5899 2.9101 6.5 6.5 6.5v-1c-3.0376 0-5.5-2.4624-5.5-5.5zm6.5-6.5c-3.5899 0-6.5 2.9101-6.5 6.5h1c0-3.0376 2.4624-5.5 5.5-5.5zm6.5 6.5c0-3.5899-2.9101-6.5-6.5-6.5v1c3.0376 0 5.5 2.4624 5.5 5.5zm13.5 6.5c3.5899 0 6.5-2.9101 6.5-6.5h-1c0 3.0376-2.4624 5.5-5.5 5.5zm-6.5-6.5c0 3.5899 2.9101 6.5 6.5 6.5v-1c-3.0376 0-5.5-2.4624-5.5-5.5zm6.5-6.5c-3.5899 0-6.5 2.9101-6.5 6.5h1c0-3.0376 2.4624-5.5 5.5-5.5zm6.5 6.5c0-3.5899-2.9101-6.5-6.5-6.5v1c3.0376 0 5.5 2.4624 5.5 5.5zm19 0c0 3.0376-2.4624 5.5-5.5 5.5v1c3.5899 0 6.5-2.9101 6.5-6.5zm-5.5-5.5c3.0376 0 5.5 2.4624 5.5 5.5h1c0-3.5899-2.9101-6.5-6.5-6.5zm-5.5 5.5c0-3.0376 2.4624-5.5 5.5-5.5v-1c-3.5899 0-6.5 2.9101-6.5 6.5zm5.5 5.5c-3.0376 0-5.5-2.4624-5.5-5.5h-1c0 3.5899 2.9101 6.5 6.5 6.5z" fill="#c1c1c1" mask="url(#a)"/><path d="m334.572 10.733v.884h1.17v4.355c-.416.156-.858.299-1.3.416l.234.884c1.092-.364 2.106-.832 3.042-1.378v-.91c-.351.208-.702.403-1.066.585v-3.952h1.157v-.884h-1.157v-3.289h-.91v3.289zm4.849 2.145h1.404c-.013 1.495-.052 2.444-.13 2.86-.078.403-.247.624-.533.65h-.897l.234.767h.884c.481-.026.819-.286 1.001-.78.182-.52.286-1.95.286-4.29h-2.249v-1.872h2.886c.078 1.664.221 3.042.442 4.147.104.52.221 1.001.364 1.443-.754 1.144-1.703 2.002-2.834 2.587l.559.715c.988-.533 1.859-1.3 2.6-2.314.169.442.351.819.559 1.144.481.78.936 1.17 1.378 1.17.468 0 .832-.871 1.092-2.613l-.78-.429c-.143 1.248-.299 1.885-.481 1.898-.182 0-.442-.312-.754-.923-.156-.299-.312-.663-.442-1.105.676-1.144 1.209-2.548 1.599-4.186l-.767-.325c-.286 1.261-.663 2.379-1.144 3.354-.052-.234-.104-.468-.143-.728-.182-.936-.299-2.223-.377-3.835h2.899v-.845h-2.925c-.026-.611-.039-1.274-.039-1.976h-.858c0 .689 0 1.352.026 1.976h-3.77v3.536c-.052 2.418-.572 4.29-1.573 5.642l.689.611c1.144-1.56 1.742-3.653 1.794-6.253zm5.252-5.59-.689.273c.325.468.624 1.014.91 1.638l.689-.299c-.26-.572-.559-1.105-.91-1.612zm3.068 1.586v.897h5.278v1.703h-4.056v5.993h.923v-5.096h3.133v6.903h.962v-6.903h3.289v3.614c0 .364-.182.546-.546.546l-1.235-.052.234.897h1.3c.78 0 1.183-.403 1.183-1.183v-4.719h-4.225v-1.703h5.278v-.897h-5.317c-.208-.598-.416-1.144-.624-1.625l-1.001.156c.234.442.468.923.676 1.469zm24.258 1.014-2.795.858v-3.367h-.91v3.653l-1.898.585v-2.912h-.91v3.198l-1.092.338v.91l1.092-.338v4.953c0 .858.429 1.3 1.3 1.3h4.108c.481 0 .832-.13 1.053-.377.26-.286.429-1.079.52-2.392l-.871-.273c-.052 1.053-.156 1.69-.299 1.898-.104.169-.299.26-.572.26h-3.653c-.455 0-.676-.208-.676-.598v-5.044l1.898-.572v4.641h.91v-4.914l1.898-.572c-.013 1.768-.052 2.795-.117 3.068-.078.286-.299.429-.65.429-.156 0-.338-.013-.533-.026l.26.923h.078c.975 0 1.534-.286 1.664-.832.13-.572.195-2.171.195-4.797zm-7.436 5.525c-.494.234-1.014.455-1.534.65v-4.316h1.352v-.91h-1.352v-3.354h-.923v3.354h-1.482v.91h1.482v4.628c-.546.156-1.092.299-1.638.416l.234.936c1.378-.364 2.665-.832 3.861-1.391zm13.689-6.344c-.416.988-1.222 1.833-2.405 2.535l.52.676c.494-.312.936-.65 1.326-1.014.364.39.806.754 1.313 1.092-.91.429-2.041.767-3.38 1.001l.416.754c1.482-.325 2.717-.754 3.718-1.287.91.507 1.989.923 3.25 1.261l.494-.702c-1.118-.26-2.106-.611-2.977-1.027.741-.52 1.287-1.131 1.651-1.82v-.65h-3.432c.13-.234.234-.468.338-.715zm1.508 2.886c-.598-.364-1.131-.767-1.586-1.209.026-.052.065-.104.117-.156h2.951c-.351.52-.845.975-1.482 1.365zm-2.574 3.497-.364.702c1.742.338 3.419.819 5.031 1.443l.312-.754c-1.586-.598-3.25-1.066-4.979-1.391zm1.352-1.82-.429.624c.962.312 1.885.728 2.782 1.274l.442-.676c-.845-.468-1.781-.884-2.795-1.222zm6.266-5.681h-10.608v11.349h.91v-.533h8.788v.533h.91zm-9.698 9.984v-9.152h8.788v9.152z" fill="#4c4c4c"/><g stroke-width=".5"><circle cx="14" cy="14" fill="#ec6a5e" r="5.75" stroke="#d15247"/><circle cx="34" cy="14" fill="#f4be4f" r="5.75" stroke="#d7a43d"/><circle cx="54" cy="14" fill="#61c454" r="5.75" stroke="#4faa3f"/></g><path d="m0 28.5h720v.5h-720z" fill="#000" fill-opacity=".15"/></svg>